<?xml version="1.0" encoding="UTF-8" standalone="no"?> <!-- Created with Vectornator for iOS (http://vectornator.io/) --><!DOCTYPE svg PUBLIC "-//W3C//DTD SVG 1.1//EN" "http://www.w3.org/Graphics/SVG/1.1/DTD/svg11.dtd">
<svg height="100%" style="fill-rule:evenodd;clip-rule:evenodd;stroke-linecap:round;stroke-linejoin:round;" xmlns:xlink="http://www.w3.org/1999/xlink" xmlns="http://www.w3.org/2000/svg" xml:space="preserve" width="100%" xmlns:vectornator="http://vectornator.io" version="1.1" viewBox="0 0 1024 1024">
<metadata>
<vectornator:setting key="DisplayWhiteBackground" value="0"/>
<vectornator:setting key="RulersVisible" value="1"/>
<vectornator:setting key="GridSpacing" value="36"/>
<vectornator:setting key="Units" value="Pixels"/>
<vectornator:setting key="DynamicGuides" value="0"/>
<vectornator:setting key="SnapToPoints" value="0"/>
<vectornator:setting key="SnapToGrid" value="0"/>
<vectornator:setting key="SnapToGuides" value="1"/>
<vectornator:setting key="ShowGrid" value="1"/>
<vectornator:setting key="SnapToEdges" value="0"/>
</metadata>
<defs/>
<g id="Layer 1" vectornator:layerName="Layer 1">
<path stroke="#000000" stroke-width="32.87" d="M462.22-150.003C464.273-146.923+463.156-148.253+465.475-145.934" fill="none" stroke-linecap="round" opacity="1" stroke-linejoin="round"/>
<path stroke="#000000" stroke-width="11.44" d="M51.5377+507.353C58.1461+431.682+84.3231+348.723+126.723+285.83C135.156+273.321+159.425+233.237+180.775+242.938C203.809+253.404+197.322+317.51+194.534+334.817C183.285+404.653+154.19+471.486+145.962+541.601C144.133+557.191+140.597+583.077+152.923+595.521L149.692+599.674C113.839+590.337+128.571+542.743+135.305+516.462C152.886+447.846+177.828+380.878+187.275+310.288C188.956+297.727+194.394+260.226+180.775+249.946C164.575+237.718+127.224+292.12+121.532+301.519C86.9771+358.578+65.6462+440.392+61.9927+507.353" fill="#000000" stroke-linecap="butt" opacity="1" stroke-linejoin="round"/>
<path stroke="#000000" stroke-width="11.44" d="M77.5615+414.806C112.301+451.012+189.996+423.184+225.378+404.201C232.935+400.146+258.312+390.022+263.579+382.328L269.865+388.043C263.591+403.156+246.726+412.415+233.169+420.193C200.976+438.664+164.913+449.141+127.789+447.855C114.115+447.382+100.266+444.919+87.597+439.589C82.8476+437.591+77.5979+433.89+74.0426+430.263C73.0461+429.247+70.6201+425.723+71.5757+426.778" fill="#000000" stroke-linecap="butt" opacity="1" stroke-linejoin="round"/>
<path stroke="#000000" stroke-width="11.44" d="M255.963+472.962C268.635+493.635+246.881+536.191+241.454+557.641C225.968+618.849+208.746+679.871+195.606+741.648C193.979+749.298+192.759+757.029+191.33+764.718C189.208+776.132+190.023+809.326+181.085+818.186L175.627+818.186C165.136+807.786+177.333+749.658+179.452+737.956C192.126+667.966+212.227+597.805+233.958+530.085C239.473+512.898+243.446+482.883+259.186+472.962" fill="#000000" stroke-linecap="butt" opacity="1" stroke-linejoin="round"/>
<path stroke="#000000" stroke-width="11.44" d="M248.032+481.116C254.878+473.418+263.087+462.635+272.321+456.997C293.102+444.308+334.097+439.495+327.525+476.959C322.285+506.828+293.145+532.955+274.534+554.685C259.111+572.694+242.446+593.923+222.448+607.112L219.319+603.983C246.339+563.017+290.113+534.56+316.017+491.952C321.53+482.884+328.712+450.034+307.795+454.536C284.027+459.652+272.283+467.549+255.442+484.821" fill="#000000" stroke-linecap="butt" opacity="1" stroke-linejoin="round"/>
<path stroke="#000000" stroke-width="11.44" d="M393.496+438.346C371.81+459.634+352.535+481.776+346.744+512.555C345.055+521.532+342.816+538.899+352.576+544.735C393.523+569.222+434.365+478.471+415.778+446.64C406.572+430.875+368.454+450.956+374.288+465.687C378.305+475.83+398.574+472.435+406.42+472.314C434.429+471.881+458.59+463.455+485.613+457.468L489.834+468.442C462.01+486.139+383.99+512.921+363.345+471.367C350.535+445.586+399.68+415.756+419.652+430.611C463.962+463.568+406.803+571.905+351.007+557.949C298.484+544.813+336.181+463.915+364.795+444.913C374.113+438.725+383.929+433.322+393.496+427.526" fill="#000000" stroke-linecap="butt" opacity="1" stroke-linejoin="round"/>
<path stroke="#000000" stroke-width="11.44" d="M478.361+460.527C499.889+453.21+535.114+447.023+550.788+426.381C566.231+406.044+578.521+371.486+576.848+345.944C574.614+311.844+540.801+343.901+532.888+356.601C527.363+365.469+522.361+374.728+518.394+384.395C510.201+404.363+505.293+414.17+497.936+437.074C491.792+456.207+491.214+466.1+487.745+485.517C482.801+513.189+471.163+565.942+478.398+594.102L475.369+595.313C445.574+571.953+461.534+510.234+467.69+480.419C473.884+450.425+485.001+424.375+497.988+396.684C505.718+380.203+513.503+363.964+524.279+349.166C534.219+335.517+581.23+295.088+586.637+336.75C590.893+369.547+582.729+411.288+559.747+436.155C540.562+456.914+505.171+461.953+480.409+468.719" fill="#000000" stroke-linecap="butt" opacity="1" stroke-linejoin="round"/>
<path stroke="#000000" stroke-width="11.44" d="M594.768+446.405C630.354+442.2+649.706+401.862+655.252+370.177C656.738+361.69+660.876+336.11+650.848+332.438C637.099+327.404+617.698+371.55+614.71+380.345C600.506+422.161+589.192+469.001+586.621+513.225C586.105+522.103+585.997+531.629+586.531+540.506C586.673+542.864+589.691+549.888+589.389+550.084L587.857+559.279C557.522+562.846+567.876+514.329+569.688+498.001C574.862+451.387+589.272+403.344+611.114+361.902C618.205+348.449+629.256+327.925+645.326+323.138C672.719+314.979+666.845+358.543+665.42+372.281C661.266+412.338+639.712+461.774+592.484+457.824" fill="#000000" stroke-linecap="butt" opacity="1" stroke-linejoin="round"/>
<path stroke="#000000" stroke-width="11.44" d="M704.815+435.97C678.763+435.438+621.799+514.247+661.879+528.006C698.326+540.518+721.806+477.008+723.727+451.375C724.195+445.137+726.084+442.235+721.935+437.21C712.142+425.35+655.768+452.417+679.521+471.648C701.081+489.102+734.099+468.835+750.195+453.625C756.918+447.273+762.175+441.128+764.723+432.178C765.318+430.087+765.983+427.429+766.257+425.186C766.398+424.035+766.511+420.67+766.013+421.717C760.768+432.742+771.714+432.824+778.779+433.834C783.054+434.446+775.301+441.826+774.542+446.077C773.644+451.105+773.206+456.207+772.362+461.245C769.712+477.062+766.152+492.63+762.385+508.214C758.799+523.05+757.1+539.007+752.35+553.524C751.918+554.846+751.623+557.494+750.277+557.144C732.272+552.462+736.903+523.032+740.026+508.744C745.276+484.721+771.606+400.446+809.7+411.088C845.185+421+825.952+496.951+823.492+521.749C821.946+537.325+822.394+559.248+844.233+551.639L845.012+556.056C781.474+587.293+810.143+478.454+812.007+455.686C812.331+451.731+813.732+431.889+807.113+431.312C775.484+428.55+756.244+498.831+753.35+522.16C752.674+527.617+754.773+550.158+749.245+553.014C746.41+554.478+740.608+556.932+739.712+553.87C737.488+546.273+740.241+533.526+740.804+525.763C742.85+497.61+749.216+469.151+754.599+441.475C756.829+430.011+762.63+406.919+779.824+412.436C796.328+417.732+778.37+447.351+773.457+453.904C752.288+482.138+666.905+520.475+658.023+462.702C652.964+429.8+707.265+407.479+728.988+428.854C738.766+438.475+737.334+452.898+736.055+465.291C732.362+501.067+697.706+550.46+655.457+537.995C599.066+521.358+653.468+455.363+677.595+436.925C685.59+430.815+696.968+420.249+707.583+424.898" fill="#000000" stroke-linecap="butt" opacity="1" stroke-linejoin="round"/>
<path stroke="#000000" stroke-width="11.44" d="M819.188+364.126L863.319+364.126L869.449+248.616L948.519+247.489L946.68+368.07L906.226+369.197" fill="none" stroke-linecap="butt" opacity="1" stroke-linejoin="round"/>
<path stroke="#000000" stroke-width="11.44" d="M867.504+283.993L945.68+281.927" fill="none" stroke-linecap="butt" opacity="1" stroke-linejoin="round"/>
<path stroke="#000000" stroke-width="32.87" d="M462.22-150.003C464.273-146.923+463.156-148.253+465.475-145.934" fill="none" stroke-linecap="round" opacity="1" stroke-linejoin="round"/>
<path stroke="#000000" stroke-width="11.44" d="M51.5377+507.353C58.1461+431.682+84.3231+348.723+126.723+285.83C135.156+273.321+159.425+233.237+180.775+242.938C203.809+253.404+197.322+317.51+194.534+334.817C183.285+404.653+154.19+471.486+145.962+541.601C144.133+557.191+140.597+583.077+152.923+595.521L149.692+599.674C113.839+590.337+128.571+542.743+135.305+516.462C152.886+447.846+177.828+380.878+187.275+310.288C188.956+297.727+194.394+260.226+180.775+249.946C164.575+237.718+127.224+292.12+121.532+301.519C86.9771+358.578+65.6462+440.392+61.9927+507.353" fill="#000000" stroke-linecap="butt" opacity="1" stroke-linejoin="round"/>
<path stroke="#000000" stroke-width="11.44" d="M77.5615+414.806C112.301+451.012+189.996+423.184+225.378+404.201C232.935+400.146+258.312+390.022+263.579+382.328L269.865+388.043C263.591+403.156+246.726+412.415+233.169+420.193C200.976+438.664+164.913+449.141+127.789+447.855C114.115+447.382+100.266+444.919+87.597+439.589C82.8476+437.591+77.5979+433.89+74.0426+430.263C73.0461+429.247+70.6201+425.723+71.5757+426.778" fill="#000000" stroke-linecap="butt" opacity="1" stroke-linejoin="round"/>
<path stroke="#000000" stroke-width="11.44" d="M255.963+472.962C268.635+493.635+246.881+536.191+241.454+557.641C225.968+618.849+208.746+679.871+195.606+741.648C193.979+749.298+192.759+757.029+191.33+764.718C189.208+776.132+190.023+809.326+181.085+818.186L175.627+818.186C165.136+807.786+177.333+749.658+179.452+737.956C192.126+667.966+212.227+597.805+233.958+530.085C239.473+512.898+243.446+482.883+259.186+472.962" fill="#000000" stroke-linecap="butt" opacity="1" stroke-linejoin="round"/>
<path stroke="#000000" stroke-width="11.44" d="M248.032+481.116C254.878+473.418+263.087+462.635+272.321+456.997C293.102+444.308+334.097+439.495+327.525+476.959C322.285+506.828+293.145+532.955+274.534+554.685C259.111+572.694+242.446+593.923+222.448+607.112L219.319+603.983C246.339+563.017+290.113+534.56+316.017+491.952C321.53+482.884+328.712+450.034+307.795+454.536C284.027+459.652+272.283+467.549+255.442+484.821" fill="#000000" stroke-linecap="butt" opacity="1" stroke-linejoin="round"/>
<path stroke="#000000" stroke-width="11.44" d="M393.496+438.346C371.81+459.634+352.535+481.776+346.744+512.555C345.055+521.532+342.816+538.899+352.576+544.735C393.523+569.222+434.365+478.471+415.778+446.64C406.572+430.875+368.454+450.956+374.288+465.687C378.305+475.83+398.574+472.435+406.42+472.314C434.429+471.881+458.59+463.455+485.613+457.468L489.834+468.442C462.01+486.139+383.99+512.921+363.345+471.367C350.535+445.586+399.68+415.756+419.652+430.611C463.962+463.568+406.803+571.905+351.007+557.949C298.484+544.813+336.181+463.915+364.795+444.913C374.113+438.725+383.929+433.322+393.496+427.526" fill="#000000" stroke-linecap="butt" opacity="1" stroke-linejoin="round"/>
<path stroke="#000000" stroke-width="11.44" d="M478.361+460.527C499.889+453.21+535.114+447.023+550.788+426.381C566.231+406.044+578.521+371.486+576.848+345.944C574.614+311.844+540.801+343.901+532.888+356.601C527.363+365.469+522.361+374.728+518.394+384.395C510.201+404.363+505.293+414.17+497.936+437.074C491.792+456.207+491.214+466.1+487.745+485.517C482.801+513.189+471.163+565.942+478.398+594.102L475.369+595.313C445.574+571.953+461.534+510.234+467.69+480.419C473.884+450.425+485.001+424.375+497.988+396.684C505.718+380.203+513.503+363.964+524.279+349.166C534.219+335.517+581.23+295.088+586.637+336.75C590.893+369.547+582.729+411.288+559.747+436.155C540.562+456.914+505.171+461.953+480.409+468.719" fill="#000000" stroke-linecap="butt" opacity="1" stroke-linejoin="round"/>
<path stroke="#000000" stroke-width="11.44" d="M594.768+446.405C630.354+442.2+649.706+401.862+655.252+370.177C656.738+361.69+660.876+336.11+650.848+332.438C637.099+327.404+617.698+371.55+614.71+380.345C600.506+422.161+589.192+469.001+586.621+513.225C586.105+522.103+585.997+531.629+586.531+540.506C586.673+542.864+589.691+549.888+589.389+550.084L587.857+559.279C557.522+562.846+567.876+514.329+569.688+498.001C574.862+451.387+589.272+403.344+611.114+361.902C618.205+348.449+629.256+327.925+645.326+323.138C672.719+314.979+666.845+358.543+665.42+372.281C661.266+412.338+639.712+461.774+592.484+457.824" fill="#000000" stroke-linecap="butt" opacity="1" stroke-linejoin="round"/>
<path stroke="#000000" stroke-width="11.44" d="M704.815+435.97C678.763+435.438+621.799+514.247+661.879+528.006C698.326+540.518+721.806+477.008+723.727+451.375C724.195+445.137+726.084+442.235+721.935+437.21C712.142+425.35+655.768+452.417+679.521+471.648C701.081+489.102+734.099+468.835+750.195+453.625C756.918+447.273+762.175+441.128+764.723+432.178C765.318+430.087+765.983+427.429+766.257+425.186C766.398+424.035+766.511+420.67+766.013+421.717C760.768+432.742+771.714+432.824+778.779+433.834C783.054+434.446+775.301+441.826+774.542+446.077C773.644+451.105+773.206+456.207+772.362+461.245C769.712+477.062+766.152+492.63+762.385+508.214C758.799+523.05+757.1+539.007+752.35+553.524C751.918+554.846+751.623+557.494+750.277+557.144C732.272+552.462+736.903+523.032+740.026+508.744C745.276+484.721+771.606+400.446+809.7+411.088C845.185+421+825.952+496.951+823.492+521.749C821.946+537.325+822.394+559.248+844.233+551.639L845.012+556.056C781.474+587.293+810.143+478.454+812.007+455.686C812.331+451.731+813.732+431.889+807.113+431.312C775.484+428.55+756.244+498.831+753.35+522.16C752.674+527.617+754.773+550.158+749.245+553.014C746.41+554.478+740.608+556.932+739.712+553.87C737.488+546.273+740.241+533.526+740.804+525.763C742.85+497.61+749.216+469.151+754.599+441.475C756.829+430.011+762.63+406.919+779.824+412.436C796.328+417.732+778.37+447.351+773.457+453.904C752.288+482.138+666.905+520.475+658.023+462.702C652.964+429.8+707.265+407.479+728.988+428.854C738.766+438.475+737.334+452.898+736.055+465.291C732.362+501.067+697.706+550.46+655.457+537.995C599.066+521.358+653.468+455.363+677.595+436.925C685.59+430.815+696.968+420.249+707.583+424.898" fill="#000000" stroke-linecap="butt" opacity="1" stroke-linejoin="round"/>
<path stroke="#000000" stroke-width="11.44" d="M819.188+364.126L863.319+364.126L869.449+248.616L948.519+247.489L946.68+368.07L906.226+369.197" fill="none" stroke-linecap="butt" opacity="1" stroke-linejoin="round"/>
<path stroke="#000000" stroke-width="11.44" d="M867.504+283.993L945.68+281.927" fill="none" stroke-linecap="butt" opacity="1" stroke-linejoin="round"/>
</g>
</svg>
